<svg width="165" height="45" viewBox="0 0 165 45" fill="none" xmlns="http://www.w3.org/2000/svg">
<path d="M26.2811 30.208C26.2811 34.176 25.6731 37.104 24.4571 38.992C23.0491 41.2 21.1611 42.672 18.7931 43.408C17.3531 43.856 15.6891 44.08 13.8011 44.08C9.28906 44.08 5.56106 42.832 2.61706 40.336L3.62506 38.944C6.37706 41.088 9.22506 42.16 12.1691 42.16C16.7771 42.16 19.0811 39.248 19.0811 33.424V30.736C18.6011 31.728 17.8331 32.608 16.7771 33.376C15.7531 34.112 14.4731 34.48 12.9371 34.48C9.06506 34.48 5.96106 33.312 3.62506 30.976C1.32106 28.608 0.169063 25.584 0.169063 21.904V13.024C0.169063 9.44 1.36906 6.448 3.76906 4.048C6.16906 1.616 9.30506 0.399998 13.1771 0.399998C16.2171 0.399998 18.9531 1.264 21.3851 2.992C23.8171 4.688 25.0331 7.024 25.0331 10V10.672H18.6011L18.5531 9.52C18.4571 7.28 17.9611 5.488 17.0651 4.144C16.1691 2.768 14.8571 2.08 13.1291 2.08C11.4011 2.08 10.0731 2.768 9.14506 4.144C8.21706 5.52 7.75306 7.312 7.75306 9.52V25.312C7.75306 27.552 8.21706 29.36 9.14506 30.736C10.0731 32.112 11.4331 32.8 13.2251 32.8C15.0171 32.8 16.3611 32.112 17.2571 30.736C18.1851 29.328 18.6491 27.52 18.6491 25.312V24.304H26.2811V30.208ZM58.0233 34H50.3913V28.72C49.7833 30.48 48.7913 31.888 47.4153 32.944C46.0713 33.968 44.5673 34.48 42.9033 34.48C39.4473 34.48 36.6953 33.408 34.6473 31.264C32.5993 29.088 31.5753 26.048 31.5753 22.144V0.879997H39.1593V24.544C39.1593 30.048 40.7753 32.8 44.0073 32.8C45.7993 32.8 47.3033 31.856 48.5193 29.968C49.7353 28.08 50.3433 25.744 50.3433 22.96V0.879997H58.0233V34ZM72.3592 0.879997V34H64.7272V0.879997H72.3592ZM104.079 13.792V21.088C104.079 24.8 102.831 27.888 100.335 30.352C97.8389 32.784 94.6069 34 90.6389 34H79.0709V0.879997H90.6389C94.6069 0.879997 97.8389 2.112 100.335 4.576C102.831 7.008 104.079 10.08 104.079 13.792ZM96.4949 11.536C96.4949 8.624 95.8069 6.4 94.4309 4.864C93.0869 3.296 91.2309 2.512 88.8629 2.512H86.6549V32.368H88.8629C91.2309 32.368 93.0869 31.6 94.4309 30.064C95.8069 28.496 96.4949 26.256 96.4949 23.344V11.536ZM136.065 21.52C136.065 25.456 134.913 28.608 132.609 30.976C130.305 33.312 127.073 34.48 122.913 34.48C118.785 34.48 115.569 33.312 113.265 30.976C110.993 28.608 109.857 25.456 109.857 21.52V13.408C109.857 9.472 110.993 6.32 113.265 3.952C115.569 1.584 118.785 0.399998 122.913 0.399998C127.073 0.399998 130.305 1.584 132.609 3.952C134.913 6.32 136.065 9.472 136.065 13.408V21.52ZM128.385 25.264V9.616C128.385 7.376 127.921 5.568 126.993 4.192C126.065 2.784 124.705 2.08 122.913 2.08C121.153 2.08 119.809 2.784 118.881 4.192C117.953 5.568 117.489 7.376 117.489 9.616V25.264C117.489 27.536 117.953 29.36 118.881 30.736C119.809 32.112 121.153 32.8 122.913 32.8C124.705 32.8 126.065 32.112 126.993 30.736C127.921 29.328 128.385 27.504 128.385 25.264ZM156.753 9.712C156.753 7.024 156.209 5.152 155.121 4.096C154.065 3.008 152.401 2.464 150.129 2.464H147.489V34H139.905V0.879997H151.665C159.953 0.879997 164.097 3.728 164.097 9.424C164.097 13.232 161.201 16 155.409 17.728C161.553 18.944 164.625 22.208 164.625 27.52V34H157.041V25.888C157.041 23.456 156.545 21.6 155.553 20.32C154.561 19.04 153.169 18.4 151.377 18.4C150.865 18.4 150.177 18.432 149.313 18.496V17.248C151.041 17.184 152.641 16.624 154.113 15.568C155.873 14.352 156.753 12.4 156.753 9.712Z" fill="black"/>
</svg>
